# xmcd
#
# Track frame offsets:
#	150
#	14012
#	28425
#	42662
#	54962
#	66137
#	78325
#	92175
#	106187
#	119900
#	131225
#	141912
#	156062
#	170337
#	182187
#	196362
#	210387
#	223887
#	238625
#	251362
#	262025
#	273812
#	287800
#	302100
#
# Disc length: 4198 seconds
#
# Revision: 0
# Processed by: cddbd v1.5.2PL0 Copyright (c) Steve Scherf et al.
# Submitted via: audiograbber 1.83.01
#
DISCID=73106418
DTITLE=Tony Pastor - From The Colombia Vaults
DYEAR=1900
DGENRE=Oldies
TTITLE0=The Lady From Twenty-Nine Palms
TTITLE1=Rambling Rose
TTITLE2=Grieving For You
TTITLE3=The Wedding Samba
TTITLE4=The Richest Man In The Cemetery
TTITLE5=The French Can-Can Polka
TTITLE6=The Major And The Minor
TTITLE7=Mary's A Grand Old Name
TTITLE8=Mamie Is Mimi
TTITLE9=Mamma Loves Papa
TTITLE10=Breakfast At Seven
TTITLE11=I Wanna Sleep
TTITLE12=The Face
TTITLE13=My Rosa
TTITLE14=Miles Standish
TTITLE15=For You My Love
TTITLE16=It's Like Taking Candy From A Baby
TTITLE17=I've Got A Lovely Bunch Of Cocoanuts
TTITLE18=La Rosita
TTITLE19=Choc'late Ice Cream Cone
TTITLE20=Can I Come In For A Second?
TTITLE21=Ida (Sweet As Apple Cider)
TTITLE22="A" You're Adorable (The Alphabet Song)
TTITLE23=I Never See Maggie Alone
EXTD=
EXTT0=
EXTT1=
EXTT2=
EXTT3=
EXTT4=
EXTT5=
EXTT6=
EXTT7=
EXTT8=
EXTT9=
EXTT10=
EXTT11=
EXTT12=
EXTT13=
EXTT14=
EXTT15=
EXTT16=
EXTT17=
EXTT18=
EXTT19=
EXTT20=
EXTT21=
EXTT22=
EXTT23=
PLAYORDER=
